<?xml version="1.0" encoding="UTF-8"?>
<svg id="Capa_1" xmlns="http://www.w3.org/2000/svg" version="1.1" viewBox="0 0 850 622">
  <defs>
    <style>
      .st0 {
        fill: #ff7f0e;
      }

      .st1 {
        fill: #9467bd;
      }

      .st2 {
        font-family: Helvetica, Helvetica;
        font-size: 10px;
      }

      .st2, .st3 {
        isolation: isolate;
      }

      .st4 {
        fill: #d62728;
      }

      .st3 {
        fill: #7b7b7b;
        font-family: Arial-BoldMT, Arial;
        font-size: 12px;
        font-weight: 700;
      }

      .st5 {
        fill: #fff;
      }

      .st6 {
        fill: #e377c2;
      }

      .st7 {
        fill: #2ca02c;
      }

      .st8 {
        fill: #8c564b;
      }

      .st9 {
        fill: none;
        stroke: #000;
      }

      .st10 {
        fill: #1f77b4;
      }
    </style>
  </defs>
  <rect id="background" class="st5" width="900" height="600"/>
  <g id="viz">
    <g>
      <g id="primera">
        <rect class="st0" x="69.5" y="488" width="48.8" height="72"/>
        <rect class="st0" x="137.9" y="470" width="48.8" height="90"/>
        <rect class="st0" x="206.3" y="506" width="48.8" height="54"/>
        <rect class="st0" x="274.7" y="488" width="48.8" height="72"/>
        <rect class="st0" x="343" y="533" width="48.8" height="27"/>
        <rect class="st0" x="411.4" y="533" width="48.8" height="27"/>
        <rect class="st0" x="479.8" y="515" width="48.8" height="45"/>
        <polygon class="st0" points="548.1 560 597 560 597 560 548.1 560"/>
        <rect class="st0" x="616.5" y="533" width="48.8" height="27"/>
        <rect class="st0" x="684.9" y="533" width="48.8" height="27"/>
        <rect class="st0" x="753.3" y="506" width="48.8" height="54"/>
        <rect class="st0" x="821.6" y="488" width="48.8" height="72"/>
      </g>
      <g id="segunda">
        <rect class="st4" x="69.5" y="416" width="48.8" height="72"/>
        <rect class="st4" x="137.9" y="398" width="48.8" height="72"/>
        <rect class="st4" x="206.3" y="434" width="48.8" height="72"/>
        <rect class="st4" x="274.7" y="416" width="48.8" height="72"/>
        <rect class="st4" x="343" y="461" width="48.8" height="72"/>
        <rect class="st4" x="411.4" y="461" width="48.8" height="72"/>
        <rect class="st4" x="479.8" y="425" width="48.8" height="90"/>
        <rect class="st4" x="548.1" y="488" width="48.8" height="72"/>
        <rect class="st4" x="616.5" y="461" width="48.8" height="72"/>
        <rect class="st4" x="684.9" y="461" width="48.8" height="72"/>
        <rect class="st4" x="753.3" y="434" width="48.8" height="72"/>
        <rect class="st4" x="821.6" y="416" width="48.8" height="72"/>
      </g>
      <g id="tercera">
        <rect class="st6" x="69.5" y="344" width="48.8" height="72"/>
        <rect class="st6" x="137.9" y="326" width="48.8" height="72"/>
        <rect class="st6" x="206.3" y="362" width="48.8" height="72"/>
        <rect class="st6" x="274.7" y="326" width="48.8" height="90"/>
        <rect class="st6" x="343" y="434" width="48.8" height="27"/>
        <rect class="st6" x="411.4" y="389" width="48.8" height="72"/>
        <rect class="st6" x="479.8" y="335" width="48.8" height="90"/>
        <rect class="st6" x="548.1" y="416" width="48.8" height="72"/>
        <rect class="st6" x="616.5" y="389" width="48.8" height="72"/>
        <rect class="st6" x="684.9" y="389" width="48.8" height="72"/>
        <rect class="st6" x="753.3" y="362" width="48.8" height="72"/>
        <rect class="st6" x="821.6" y="344" width="48.8" height="72"/>
      </g>
      <g id="cuarta">
        <rect class="st10" x="69.5" y="272" width="48.8" height="72"/>
        <rect class="st10" x="137.9" y="236" width="48.8" height="90"/>
        <polygon class="st10" points="206.3 362 255.1 362 255.1 362 206.3 362"/>
        <rect class="st10" x="274.7" y="236" width="48.8" height="90"/>
        <rect class="st10" x="343" y="362" width="48.8" height="72"/>
        <rect class="st10" x="411.4" y="299" width="48.8" height="90"/>
        <rect class="st10" x="479.8" y="245" width="48.8" height="90"/>
        <rect class="st10" x="548.1" y="236" width="48.8" height="180"/>
        <rect class="st10" x="616.5" y="317" width="48.8" height="72"/>
        <polygon class="st10" points="684.9 389 733.7 389 733.7 389 684.9 389"/>
        <rect class="st10" x="753.3" y="290" width="48.8" height="72"/>
        <rect class="st10" x="821.6" y="254" width="48.8" height="90"/>
      </g>
      <g id="quinta">
        <rect class="st7" x="69.5" y="200" width="48.8" height="72"/>
        <rect class="st7" x="137.9" y="164" width="48.8" height="72"/>
        <rect class="st7" x="206.3" y="290" width="48.8" height="72"/>
        <rect class="st7" x="274.7" y="164" width="48.8" height="72"/>
        <rect class="st7" x="343" y="290" width="48.8" height="72"/>
        <rect class="st7" x="411.4" y="227" width="48.8" height="72"/>
        <rect class="st7" x="479.8" y="173" width="48.8" height="72"/>
        <rect class="st7" x="548.1" y="164" width="48.8" height="72"/>
        <rect class="st7" x="616.5" y="245" width="48.8" height="72"/>
        <rect class="st7" x="684.9" y="317" width="48.8" height="72"/>
        <rect class="st7" x="753.3" y="218" width="48.8" height="72"/>
        <rect class="st7" x="821.6" y="182" width="48.8" height="72"/>
      </g>
      <g id="sexta">
        <rect class="st8" x="69.5" y="128" width="48.8" height="72"/>
        <rect class="st8" x="137.9" y="92" width="48.8" height="72"/>
        <rect class="st8" x="206.3" y="218" width="48.8" height="72"/>
        <rect class="st8" x="274.7" y="92" width="48.8" height="72"/>
        <polygon class="st8" points="343 290 391.9 290 391.9 290 343 290"/>
        <rect class="st8" x="411.4" y="155" width="48.8" height="72"/>
        <rect class="st8" x="479.8" y="101" width="48.8" height="72"/>
        <rect class="st8" x="548.1" y="92" width="48.8" height="72"/>
        <rect class="st8" x="616.5" y="173" width="48.8" height="72"/>
        <rect class="st8" x="684.9" y="245" width="48.8" height="72"/>
        <rect class="st8" x="753.3" y="146" width="48.8" height="72"/>
        <rect class="st8" x="821.6" y="110" width="48.8" height="72"/>
      </g>
      <g id="septima">
        <rect class="st1" x="69.5" y="83" width="48.8" height="45"/>
        <rect class="st1" x="137.9" y="47" width="48.8" height="45"/>
        <rect class="st1" x="206.3" y="173" width="48.8" height="45"/>
        <rect class="st1" x="274.7" y="47" width="48.8" height="45"/>
        <polygon class="st1" points="343 290 391.9 290 391.9 290 343 290"/>
        <rect class="st1" x="411.4" y="110" width="48.8" height="45"/>
        <rect class="st1" x="479.8" y="56" width="48.8" height="45"/>
        <rect class="st1" x="548.1" y="20" width="48.8" height="72"/>
        <rect class="st1" x="616.5" y="128" width="48.8" height="45"/>
        <polygon class="st1" points="684.9 245 733.7 245 733.7 245 684.9 245"/>
        <rect class="st1" x="753.3" y="119" width="48.8" height="27"/>
        <rect class="st1" x="821.6" y="65" width="48.8" height="45"/>
      </g>
      <path class="st9" d="M50,560h840"/>
      <line class="st9" x1="94" y1="560" x2="94" y2="566"/>
      <text class="st2" transform="translate(69.5 582.7)"><tspan x="0" y="0">BROWNE </tspan><tspan x="0" y="12">PRIETO, </tspan><tspan x="0" y="24">SOFÍA</tspan></text>
      <line class="st9" x1="162.3" y1="560" x2="162.3" y2="566"/>
      <text class="st2" transform="translate(131.4 580.6)"><tspan x="0" y="0">CAMPAZZO </tspan><tspan x="0" y="12">FUENTEALBA, </tspan><tspan x="0" y="24">MAGDALENA</tspan></text>
      <line class="st9" x1="230.7" y1="560" x2="230.7" y2="566"/>
      <text class="st2" transform="translate(206.3 580.2)"><tspan x="0" y="0">CORDERO </tspan><tspan x="0" y="12">BRUMMER, </tspan><tspan x="0" y="24">MARÍA JOSÉ</tspan></text>
      <line class="st9" x1="299.1" y1="560" x2="299.1" y2="566"/>
      <text class="st2" transform="translate(274.7 580.2)"><tspan x="0" y="0">CORTHORN </tspan><tspan x="0" y="12">PEDRASA, </tspan><tspan x="0" y="24">MAGDALENA</tspan></text>
      <line class="st9" x1="367.4" y1="560" x2="367.4" y2="566"/>
      <text class="st2" transform="translate(346.9 581.4)"><tspan x="0" y="0">CUYATE </tspan><tspan x="0" y="12">MIMBELA, </tspan><tspan x="0" y="24">BRAYAN</tspan></text>
      <line class="st9" x1="435.8" y1="560" x2="435.8" y2="566"/>
      <text class="st2" transform="translate(411.4 580.5)"><tspan x="0" y="0">CVITANIC </tspan><tspan x="0" y="12">VERGARA, </tspan><tspan x="0" y="24">TOMISLAV</tspan></text>
      <line class="st9" x1="504.2" y1="560" x2="504.2" y2="566"/>
      <text class="st2" transform="translate(479.8 580.5)"><tspan x="0" y="0">FLORES </tspan><tspan x="0" y="12">HIDALGO, </tspan><tspan x="0" y="24">VALENTINA</tspan></text>
      <line class="st9" x1="572.6" y1="560" x2="572.6" y2="566"/>
      <text class="st2" transform="translate(545 581.7)"><tspan x="0" y="0">LAGOS </tspan><tspan x="0" y="12">NOVA, </tspan><tspan x="0" y="24">CONSTANZA</tspan></text>
      <line class="st9" x1="640.9" y1="560" x2="640.9" y2="566"/>
      <text class="st2" transform="translate(615.2 581.7)"><tspan x="0" y="0">NAVARRETE </tspan><tspan x="0" y="12">SANTIBÁÑEZ, </tspan><tspan x="0" y="24">SOFÍA</tspan></text>
      <line class="st9" x1="709.3" y1="560" x2="709.3" y2="566"/>
      <text class="st2" transform="translate(687.7 581.7)"><tspan x="0" y="0">OLIVARES </tspan><tspan x="0" y="12">CANALES, </tspan><tspan x="0" y="24">DANIELA</tspan></text>
      <line class="st9" x1="777.7" y1="560" x2="777.7" y2="566"/>
      <text class="st2" transform="translate(759.7 581.7)"><tspan x="0" y="0">OLIVOS </tspan><tspan x="0" y="12">LEIVA, </tspan><tspan x="0" y="24">MÓNICA</tspan></text>
      <line class="st9" x1="846" y1="560" x2="846" y2="566"/>
      <text class="st2" transform="translate(821.6 581.1)"><tspan x="0" y="0">WURTH </tspan><tspan x="0" y="12">GONZÁLEZ, </tspan><tspan x="0" y="24">FRANCISCA</tspan></text>
      <g id="yAxis">
        <path class="st9" d="M50,560V20"/>
        <g>
          <line class="st9" x1="50" y1="560" x2="44" y2="560"/>
          <text class="st2" transform="translate(27.1 563.2)"><tspan x="0" y="0">0.0</tspan></text>
        </g>
        <g>
          <line class="st9" x1="50" y1="515" x2="44" y2="515"/>
          <text class="st2" transform="translate(27.1 518.2)"><tspan x="0" y="0">0.5</tspan></text>
        </g>
        <g>
          <line class="st9" x1="50" y1="470" x2="44" y2="470"/>
          <text class="st2" transform="translate(27.1 473.2)"><tspan x="0" y="0">1.0</tspan></text>
        </g>
        <g>
          <line class="st9" x1="50" y1="425" x2="44" y2="425"/>
          <text class="st2" transform="translate(27.1 428.2)"><tspan x="0" y="0">1.5</tspan></text>
        </g>
        <g>
          <line class="st9" x1="50" y1="380" x2="44" y2="380"/>
          <text class="st2" transform="translate(27.1 383.2)"><tspan x="0" y="0">2.0</tspan></text>
        </g>
        <g>
          <line class="st9" x1="50" y1="335" x2="44" y2="335"/>
          <text class="st2" transform="translate(27.1 338.2)"><tspan x="0" y="0">2.5</tspan></text>
        </g>
        <g>
          <line class="st9" x1="50" y1="290" x2="44" y2="290"/>
          <text class="st2" transform="translate(27.1 293.2)"><tspan x="0" y="0">3.0</tspan></text>
        </g>
        <g>
          <line class="st9" x1="50" y1="245" x2="44" y2="245"/>
          <text class="st2" transform="translate(27.1 248.2)"><tspan x="0" y="0">3.5</tspan></text>
        </g>
        <g>
          <line class="st9" x1="50" y1="200" x2="44" y2="200"/>
          <text class="st2" transform="translate(27.1 203.2)"><tspan x="0" y="0">4.0</tspan></text>
        </g>
        <g>
          <line class="st9" x1="50" y1="155" x2="44" y2="155"/>
          <text class="st2" transform="translate(27.1 158.2)"><tspan x="0" y="0">4.5</tspan></text>
        </g>
        <g>
          <line class="st9" x1="50" y1="110" x2="44" y2="110"/>
          <text class="st2" transform="translate(27.1 113.2)"><tspan x="0" y="0">5.0</tspan></text>
        </g>
        <g>
          <line class="st9" x1="50" y1="65" x2="44" y2="65"/>
          <text class="st2" transform="translate(27.1 68.2)"><tspan x="0" y="0">5.5</tspan></text>
        </g>
        <g>
          <line class="st9" x1="50" y1="20" x2="44" y2="20"/>
          <text class="st2" transform="translate(27.1 23.2)"><tspan x="0" y="0">6.0</tspan></text>
        </g>
      </g>
      <text class="st3" transform="translate(846 556)"><tspan x="0" y="0">nombre</tspan></text>
    </g>
  </g>
</svg>